<?xml version="1.0" encoding="UTF-8" standalone="no"?>
<svg
   xmlns:dc="http://purl.org/dc/elements/1.1/"
   xmlns:cc="http://creativecommons.org/ns#"
   xmlns:rdf="http://www.w3.org/1999/02/22-rdf-syntax-ns#"
   xmlns:svg="http://www.w3.org/2000/svg"
   xmlns="http://www.w3.org/2000/svg"
   xmlns:sodipodi="http://sodipodi.sourceforge.net/DTD/sodipodi-0.dtd"
   xmlns:inkscape="http://www.inkscape.org/namespaces/inkscape"
   width="1024px"
   height="354px"
   viewBox="0 0 1024 354"
   version="1.1"
   id="SVGRoot"
   sodipodi:docname="Viettel.svg"
   inkscape:version="1.0.1 (3bc2e813f5, 2020-09-07)">
  <defs
     id="defs2730" />
  <sodipodi:namedview
     id="base"
     pagecolor="#ffffff"
     bordercolor="#666666"
     borderopacity="1.0"
     inkscape:pageopacity="0.0"
     inkscape:pageshadow="2"
     inkscape:zoom="0.43209958"
     inkscape:cx="528.57143"
     inkscape:cy="180"
     inkscape:document-units="px"
     inkscape:current-layer="layer1"
     inkscape:document-rotation="0"
     showgrid="false"
     inkscape:window-width="1920"
     inkscape:window-height="1001"
     inkscape:window-x="-9"
     inkscape:window-y="-9"
     inkscape:window-maximized="1" />
  <metadata
     id="metadata2733">
    <rdf:RDF>
      <cc:Work
         rdf:about="">
        <dc:format>image/svg+xml</dc:format>
        <dc:type
           rdf:resource="http://purl.org/dc/dcmitype/StillImage" />
        <dc:title></dc:title>
      </cc:Work>
    </rdf:RDF>
  </metadata>
  <g
     inkscape:label="Lớp 1"
     inkscape:groupmode="layer"
     id="layer1">
    <path
       id="rect1432"
       style="fill:#050505;fill-opacity:1;fill-rule:evenodd;stroke:none;stroke-width:1.77334;stroke-miterlimit:4;stroke-dasharray:none;stroke-opacity:1"
       d="m 769.25777,272.6042 c -8.06169,0.0446 -10.10008,2.48971 -10.10008,2.48971 l 3.35027,5.48195 c 0,0 1.81174,-1.4058 5.79729,-1.4058 0,0 4.40799,-0.002 4.43747,1.7671 0.0452,2.71747 -6.94361,2.91343 -6.94361,2.91343 v 5.54436 h 7.85672 v -2.25321 c 0,0 8.09976,-0.27044 8.09976,-6.11261 0,-5.84247 -4.43613,-8.47019 -12.49782,-8.42493 z m -203.66357,2.91014 -13.74924,10.34313 4.84475,5.76115 13.48648,-10.6059 z m 66.64738,1.57002 v 60.88623 h 9.68951 v -38.36387 h 16.10428 c 0,0 7.72533,0.39212 7.72533,9.55811 v 28.80576 h 10.08367 v -30.11631 c 0,0 5.2e-4,-16.19491 -15.31928,-16.10428 l -18.594,0.11166 v -14.77732 z m 239.14359,0 v 51.98174 c 0,9.03632 7.71876,9.03587 7.71876,9.03587 h 19.56952 c 7.64153,0 13.27729,-4.48708 15.96305,-10.32015 3.27514,-7.11299 2.69335,-15.82839 2.69335,-15.82839 0,-20.84299 -17.20132,-19.94067 -17.20132,-19.94067 h -18.41665 v -14.9284 z m -600.92672,0.13134 v 7.85672 h 16.6297 v 53.02951 h 9.82098 v -53.02951 h 15.84149 v -7.85672 z m 44.78193,0 v 60.88623 h 9.68948 v -38.36387 h 16.10433 c 0,0 7.72525,0.39239 7.72525,9.55813 v 28.80574 h 10.08366 v -30.11629 c 0,0 5.1e-4,-16.19493 -15.31931,-16.10429 l -18.59393,0.11167 V 277.2157 Z m 123.73661,13.74926 c -12.57006,0.218 -24.8783,5.67299 -25.14016,23.82961 -2e-5,23.30699 20.68627,23.30736 20.68627,23.30736 0,0 19.64315,1.31072 24.88068,-4.45059 0,0 7.19934,-6.02242 7.06842,-21.99683 -1.39514,-19.96618 -15.89311,-20.78363 -27.49521,-20.68955 z m -61.28047,1.04777 c 0,0 -13.48643,1.8e-4 -13.48643,16.49844 v 15.18789 c 0,0 0.002,14.40287 15.97619,14.40287 h 27.75801 v -7.46256 h -24.35508 c 0,0 -9.16411,-0.002 -9.16411,-9.16725 v -3.01197 h 30.24447 c 0,0 5.62976,-0.39116 5.62976,-9.16396 0,-8.77288 -5.75918,-17.28346 -13.87734,-17.28346 z m 130.2829,0 c 0,0 -16.23568,0.001 -16.23568,16.62982 v 14.79375 c 0,0 1.04695,14.66563 18.19984,14.66563 h 23.176 V 330.508 h -20.81766 c 0,0 -10.47453,-1.70206 -10.47453,-13.48648 v -6.02393 c 0,0 1.04592,-11.39091 11.12816,-11.39091 h 20.16403 v -7.59395 z m 32.34324,0 v 7.59395 h 25.6624 c 0,0 4.84475,0.78581 4.84475,6.80894 v 2.22693 h -20.81764 c 0,0 -13.61787,-0.001 -13.61787,13.22372 v 5.36699 c 0,0 10e-4,10.86867 12.96422,10.86867 h 21.47129 c 0,0 10.08367,0.39317 10.08367,-9.55811 v -25.40294 c 0,0 -0.13117,-11.12815 -13.61787,-11.12815 z m 62.19677,0 c 0,0 -16.23896,0.001 -16.23896,16.62982 v 14.79375 c 0,0 1.05024,14.66563 18.20314,14.66563 h 23.17598 V 330.508 h -20.82094 c 0,0 -10.47451,-1.70206 -10.47451,-13.48648 v -6.02393 c 0,0 1.0459,-11.39091 11.12814,-11.39091 h 20.16731 v -7.59395 z m 116.53357,0 c 0,0 -16.23568,0.001 -16.23568,16.62982 v 14.79375 c 0,0 1.04695,14.66563 18.19986,14.66563 h 23.17598 V 330.508 H 723.3755 c 0,0 -10.47781,-1.70206 -10.47781,-13.48648 v -6.02393 c 0,0 1.0492,-11.39091 11.13144,-11.39091 h 20.16403 v -7.59395 z m 28.80574,0 v 30.90131 c 0,15.05786 14.01201,15.18789 14.01201,15.18789 h 23.17599 c 8.64192,0 8.64174,-7.19979 8.64174,-7.19979 v -38.88941 h -9.8209 v 34.43551 c 0,4.45191 -4.19111,4.4539 -4.19111,4.4539 h -10.86539 c -10.73695,0 -11.26283,-8.90449 -11.26283,-8.90449 v -29.98492 z m 232.22955,0 c 0,0 -7.76146,-2.2e-4 -7.76146,8.54319 v 37.54601 h 9.64353 v -34.78696 c 0,0 -0.10999,-3.67216 4.00718,-3.67216 h 13.54236 c 0,0 6.8286,0.0953 6.8286,8.22129 v 30.23783 h 10.0738 v -33.37787 c 0,0 0,-12.71133 -12.35,-12.71133 z m -176.72016,0.39416 v 7.59393 h 25.6624 c 0,0 4.84475,0.78581 4.84475,6.80894 v 2.22694 h -20.81766 c 0,0 -13.61785,-10e-4 -13.61785,13.22371 v 5.36701 c 0,0 0.001,10.86867 12.96422,10.86867 h 21.47129 c 0,0 10.08367,0.39283 10.08365,-9.55813 v -25.40293 c 0,0 -0.13117,-11.12814 -13.61785,-11.12814 z m 121.37831,0 v 7.59393 h 25.6624 c 0,0 4.84475,0.78581 4.84475,6.80894 v 2.22694 h -20.81764 c 0,0 -13.61787,-10e-4 -13.61787,13.22371 v 5.36701 c 0,0 10e-4,10.86867 12.96422,10.86867 h 21.47129 c 0,0 10.08365,0.39283 10.08365,-9.55813 v -25.40293 c 0,0 -0.13117,-11.12814 -13.61785,-11.12814 z m -483.27317,7.21621 c 7.43277,0.0913 15.06672,3.02681 15.18131,16.08787 0.13101,14.92699 -13.35836,15.31926 -13.35836,15.31926 0,0 -19.63812,2.48813 -19.50712,-14.40287 0.13101,-16.89107 14.53097,-16.8893 14.53097,-16.8893 1.03114,-0.0819 2.09137,-0.12798 3.1532,-0.11503 z m 440.23861,0.0197 h 15.56234 c 2.00024,0 9.90958,-1.3e-4 9.90958,15.83824 0,15.83858 -11.36464,15.42109 -11.36464,15.42109 h -10.09352 c -4.00071,0 -4.01376,-3.51121 -4.01376,-3.51121 z M 382.41,299.73796 h 9.82087 c 0,0 8.11992,1.17642 8.25086,10.99678 H 374.4251 v -3.00869 c 0,0 0.25949,-7.98809 7.9849,-7.98809 z m 170.48274,16.23567 h 17.93707 v 10.34327 c 0,0 0.002,4.19113 -4.18783,4.19113 h -14.53426 c 0,0 -5.37029,-0.65576 -5.37029,-4.19113 v -4.58198 c 0,0 10e-4,-5.76115 6.15531,-5.76115 z m 263.04547,0.39414 h 17.93707 v 10.34316 c 0,0 0.002,4.19111 -4.18783,4.19111 h -14.53426 c 0,0 -5.37028,-0.65577 -5.37028,-4.19111 v -4.58199 c 0,0 10e-4,-5.76117 6.1553,-5.76117 z m 121.37831,0 h 17.93707 v 10.34316 c 0,0 0.002,4.19111 -4.18783,4.19111 H 936.5315 c 0,0 -5.37029,-0.65577 -5.37029,-4.19111 v -4.58199 c 0,0 10e-4,-5.76117 6.15531,-5.76117 z m 0.64049,24.50297 v 10.24131 h 10.29387 v -10.24131 z" />
    <path
       id="path851"
       style="fill:#ef0032;fill-opacity:1;stroke:none;stroke-width:1.68233px;stroke-linecap:butt;stroke-linejoin:miter;stroke-opacity:1"
       d="m 221.72485,1.8632515 c 0,0 -9.96359,0.708771 -9.9757,9.8606895 l -0.0387,30.700872 c 0,0 7.79503,-10.427457 18.76328,-10.427457 h 13.05776 c 0,0 10.67882,-0.636643 10.67882,-9.515688 V 11.513644 c 0,0 -0.001,-9.6504261 -10.91208,-9.6503925 z M 501.6197,8.9310173 c -11.86661,0 -11.86508,10.6985817 -11.86508,10.6985817 V 43.947848 H 463.49116 V 60.28816 c 0,0 -10e-4,10.504732 11.86503,10.504732 h 14.39843 v 81.510928 c 0.77816,26.71934 28.983,42.22264 53.10523,42.22264 h 32.099 c 8.75403,0 10.11703,-12.07205 10.11703,-12.07205 v -15.56155 c -15.95177,3.11255 -28.9874,-0.19387 -28.9874,-0.19387 -24.70578,-7.19771 -23.9272,-25.87241 -23.9272,-25.87241 V 70.792892 h 83.65005 v 81.510928 c 0.77814,26.71934 28.98629,42.22264 53.10845,42.22264 h 32.09578 c 8.75401,0 10.11702,-12.07205 10.11702,-12.07205 v -15.56155 c -15.95181,3.11255 -28.98416,-0.19387 -28.98416,-0.19387 -24.70576,-7.19771 -23.9272,-25.87241 -23.9272,-25.87241 V 70.792892 h 40.67502 c 11.88177,0 11.65144,-9.633996 11.65144,-9.633996 V 43.947848 H 658.22122 V 20.799325 c 0,-11.2001498 -10.11702,-11.8683077 -10.11702,-11.8683077 h -20.42786 c -11.86654,0 -11.86501,10.6985817 -11.86501,10.6985817 V 43.947848 H 532.16128 V 20.799325 c 0,-11.2001498 -10.11372,-11.8683077 -10.11372,-11.8683077 z m 431.20294,0 c -11.8666,0 -11.86508,10.6985817 -11.86508,10.6985817 V 152.30382 c 0.77816,26.71934 28.98299,42.22264 53.10522,42.22264 h 32.09902 c 8.754,0 10.117,-12.07205 10.117,-12.07205 v -15.56155 c -15.9518,3.11255 -28.98738,-0.19387 -28.98738,-0.19387 -24.70578,-7.19771 -23.9272,-25.87241 -23.9272,-25.87241 V 20.799325 C 963.36422,9.5991752 953.2505,8.9310173 953.2505,8.9310173 Z M 358.85471,42.883245 c -6.99303,0.01682 -36.37527,0.891405 -58.90808,13.83982 -14.79412,8.501418 -24.24429,22.718865 -24.6632,52.464445 0,0 0.0925,44.08885 6.31866,54.59367 0,0 7.30381,14.98884 23.63148,24.03565 7.05643,3.90972 21.24345,6.70963 31.80994,6.70963 h 103.6869 c 0,0 10.11698,-0.9822 10.11698,-13.43236 V 167.47768 H 347.742 c 0,0 -27.62165,-0.77906 -28.20537,-32.09899 -0.0286,-1.64171 -0.0336,-2.96071 -0.0555,-4.4753 h 116.77435 c 0,0 20.42786,-1.55494 20.42786,-28.01147 0,0 3.3064,-27.236801 -17.89779,-44.161236 -21.20419,-16.924452 -55.23334,-15.328027 -78.38939,-15.834304 0,0 -0.54219,-0.01514 -1.54112,-0.01345 z m 443.15341,0 c -6.99307,0.01514 -36.37513,0.891405 -58.90795,13.83982 -14.79422,8.501418 -24.24445,22.718865 -24.66328,52.464445 0,0 0.0933,44.08885 6.31862,54.59367 0,0 7.30392,14.98884 23.63154,24.03565 7.05633,3.90972 21.24339,6.70963 31.80987,6.70963 h 103.68692 c 0,0 10.11698,-0.9822 10.11698,-13.43236 V 167.47768 H 790.89548 c 0,0 -27.62175,-0.77906 -28.20537,-32.09899 -0.0288,-1.64171 -0.0382,-2.96071 -0.0589,-4.4753 h 116.77754 c 0,0 20.42791,-1.55494 20.42791,-28.01147 0,0 3.30635,-27.236801 -17.89784,-44.161236 -21.20417,-16.924452 -55.23329,-15.328027 -78.38944,-15.834304 0,0 -0.54207,-0.01514 -1.54107,-0.01345 z M 7.1814367,44.476862 79.551221,184.15313 c 0,0 3.860352,11.82238 25.330329,11.82238 h 7.71835 c 0,0 15.92187,0.72218 23.6414,-13.02824 7.71953,-13.75049 72.37315,-138.470408 72.37315,-138.470408 h -33.05188 c 0,0 -12.54265,1.930731 -20.50351,18.334796 -7.96085,16.404066 -44.62788,94.322312 -44.62788,94.322312 0,0 -2.89556,4.34227 -5.06664,0 -2.17108,-4.34226 -47.76578,-99.389017 -47.76578,-99.389017 0,0 -8.20184,-13.268091 -17.368641,-13.268091 z m 214.9409633,0 c 0,0 -10.37325,0.0016 -10.37325,11.82233 V 184.39633 c 0,0 0.72296,10.13013 11.09605,10.13013 h 23.15841 c 0,0 8.2047,-0.48052 8.2047,-13.025 V 54.850151 c 0,0 -1.69163,-10.373289 -9.89363,-10.373289 z m 143.70482,25.106834 c 12.12223,0.005 30.08735,1.77038 39.69246,11.132343 0,0 7.19922,5.834286 7.19922,14.782836 0,9.143035 -5.83617,9.144385 -7.58696,9.144385 h -65.17068 c 0,0 -10.58431,-0.91648 -20.50014,8.51347 0.20332,-12.88777 0.85431,-16.879176 0.85431,-16.879176 0,0 -0.19676,-22.567948 33.06836,-26.069525 0,0 5.16989,-0.62773 12.44343,-0.624299 z m 443.15336,0 c 12.12226,0.005 30.08744,1.77038 39.69254,11.132343 0,0 7.19921,5.834286 7.19921,14.782836 0,9.143035 -5.83612,9.144385 -7.58694,9.144385 h -65.17066 c 0,0 -10.5843,-0.91648 -20.50018,8.51347 0.20339,-12.88777 0.85432,-16.879176 0.85432,-16.879176 0,0 -0.19716,-22.567931 33.06836,-26.069525 0,0 5.17001,-0.627663 12.44335,-0.624299 z"
       sodipodi:nodetypes="cscscscscsccccsccsscccccccsscccccscccscscccscssccssccccscscsccsscsccscccsccccsccsscsccscccscccccscsccscscsccscscccscccsccccccccscccccc" />
  </g>
</svg>
